<?xml version="1.0" standalone="no"?>
<!DOCTYPE svg PUBLIC "-//W3C//DTD SVG 20010904//EN"
 "http://www.w3.org/TR/2001/REC-SVG-20010904/DTD/svg10.dtd">
<svg version="1.0" xmlns="http://www.w3.org/2000/svg"
 width="1013.000000pt" height="1280.000000pt" viewBox="0 0 1013.000000 1280.000000"
 preserveAspectRatio="xMidYMid meet">
<g transform="translate(0.000000,1280.000000) scale(0.100000,-0.100000)"
fill="#ffffff" stroke="none">
<path d="M5875 10975 c-546 -77 -1107 -325 -1640 -725 -495 -371 -911 -857
-1150 -1345 -90 -182 -137 -309 -180 -480 -46 -182 -59 -299 -52 -474 19 -477
229 -825 647 -1071 29 -17 54 -29 57 -27 2 3 -10 26 -27 53 -129 204 -110 453
60 799 215 436 661 922 1260 1372 689 516 1400 839 1988 903 157 18 393 8 496
-19 231 -61 411 -210 520 -428 47 -95 66 -177 66 -294 0 -159 -45 -292 -164
-488 -166 -273 -433 -576 -816 -925 -376 -343 -574 -505 -1265 -1036 -1340
-1030 -1915 -1493 -2604 -2094 -596 -520 -1087 -1006 -1503 -1488 -90 -103
-118 -142 -118 -163 0 -47 70 -449 80 -459 6 -6 56 14 132 52 203 103 464 176
716 203 144 15 527 6 680 -15 251 -36 557 -101 762 -162 47 -14 382 -122 745
-239 960 -311 1111 -355 1520 -450 354 -82 416 -90 705 -90 282 1 364 12 547
76 323 113 585 355 753 694 126 254 193 494 256 918 3 20 2 37 -3 36 -4 0 -37
-46 -73 -102 -78 -122 -224 -273 -330 -344 -370 -247 -905 -326 -1574 -233
-181 26 -636 111 -1111 210 -657 136 -1148 224 -1426 255 -199 23 -630 31
-816 15 -294 -24 -551 -78 -852 -180 -96 -33 -177 -57 -179 -55 -13 12 293
301 514 486 473 395 1236 883 2449 1566 846 477 1526 880 1863 1105 579 387
1076 861 1309 1248 250 417 352 845 298 1255 -77 584 -477 1321 -918 1692
-248 208 -559 356 -898 429 -112 24 -149 27 -374 30 -178 2 -279 -1 -350 -11z"/>
</g>
</svg>
