<?xml version="1.0" standalone="no"?>
<!DOCTYPE svg PUBLIC "-//W3C//DTD SVG 20010904//EN"
 "http://www.w3.org/TR/2001/REC-SVG-20010904/DTD/svg10.dtd">
<svg version="1.0" xmlns="http://www.w3.org/2000/svg"
 width="1013.000000pt" height="1280.000000pt" viewBox="0 0 1013.000000 1280.000000"
 preserveAspectRatio="xMidYMid meet">
<metadata>
Created by potrace 1.15, written by Peter Selinger 2001-2017
</metadata>
<g transform="translate(0.000000,1280.000000) scale(0.100000,-0.100000)"
fill="#ffffff" stroke="none">
<path d="M5135 10673 c-202 -14 -468 -72 -645 -141 -337 -132 -662 -406 -880
-742 -81 -126 -206 -382 -269 -553 -28 -75 -51 -142 -51 -147 0 -19 17 -10 75
41 81 71 164 131 173 125 4 -2 73 27 152 66 253 122 427 183 690 241 416 93
901 105 1835 49 742 -45 1139 -57 1405 -43 140 7 229 8 254 2 22 -5 45 -8 50
-5 32 15 -254 -238 -409 -362 -421 -339 -797 -575 -1372 -862 -772 -387 -1511
-632 -2334 -777 -78 -14 -147 -29 -152 -34 -10 -10 -47 -173 -47 -207 0 -25
30 -34 114 -34 30 0 46 -4 38 -8 -23 -15 37 -33 147 -43 58 -6 327 -12 596
-14 283 -2 528 -8 580 -15 809 -101 1325 -279 1594 -550 99 -98 120 -125 147
-186 51 -116 69 -318 40 -454 -35 -163 -130 -359 -274 -564 -342 -487 -1041
-1120 -1932 -1750 -377 -267 -1101 -741 -1120 -734 -5 2 -49 51 -97 109 -48
59 -133 158 -189 220 -342 385 -530 714 -590 1036 -9 48 -18 165 -21 258 -4
141 -2 195 16 315 46 316 137 591 312 944 38 77 67 141 65 143 -12 12 -397
-347 -573 -533 -174 -184 -257 -284 -354 -428 -139 -207 -206 -368 -216 -525
-10 -151 47 -319 156 -461 28 -36 50 -70 51 -76 0 -17 210 -217 445 -424 121
-107 271 -242 334 -300 63 -58 119 -105 125 -105 6 -1 10 -6 9 -12 -2 -11 122
-153 185 -213 21 -19 31 -30 22 -25 -9 6 2 -7 25 -29 22 -21 31 -33 20 -26
-11 7 -2 -5 20 -25 22 -21 33 -34 25 -29 -9 5 -2 -4 15 -19 16 -16 23 -25 15
-21 -13 7 -13 5 -1 -12 8 -10 26 -30 40 -43 14 -13 19 -20 11 -15 -8 4 -4 -4
10 -17 36 -34 90 -126 159 -270 68 -140 118 -281 162 -449 16 -63 34 -126 40
-138 l9 -24 56 32 c31 17 53 26 49 20 -36 -58 431 235 1010 634 744 513 1336
969 1875 1445 327 289 872 853 854 883 -4 6 -3 8 3 5 13 -8 43 24 48 50 1 10
8 17 14 16 10 -3 36 36 33 47 -1 3 2 5 7 5 5 0 20 14 32 30 13 17 17 26 8 20
-8 -5 -1 3 16 18 16 16 23 26 15 22 -8 -3 -1 6 15 20 17 15 23 24 15 20 -8 -3
-1 6 15 20 17 15 24 24 17 20 -11 -6 -11 -3 -1 13 7 12 18 18 24 15 5 -4 7 -3
3 1 -3 4 26 56 66 114 368 540 457 971 274 1337 -155 310 -561 555 -1176 710
-515 129 -1063 189 -1859 202 -340 5 -399 8 -380 19 86 51 200 96 460 184 579
194 1032 400 1492 675 290 174 710 460 710 483 0 6 4 14 9 19 5 5 6 3 2 -4 -4
-7 -3 -13 2 -13 11 0 30 21 30 33 0 5 4 12 8 15 4 4 4 1 0 -5 -4 -7 -3 -13 3
-13 11 0 25 19 26 35 1 6 7 9 14 7 16 -3 43 17 36 28 -3 4 3 14 12 21 12 10
14 10 9 2 -13 -23 10 -13 35 14 18 20 19 24 4 13 -18 -14 -19 -14 -7 2 8 9 19
15 26 12 6 -2 23 8 36 23 l25 28 -25 -20 -25 -20 18 22 c11 12 25 19 32 17 7
-3 65 47 131 113 65 65 122 117 127 115 5 -1 6 1 3 6 -3 5 43 55 102 113 l107
104 -95 -100 c-70 -74 -60 -66 38 32 74 73 131 136 128 142 -3 5 2 15 12 22
15 13 16 12 3 -3 -7 -10 -11 -18 -8 -18 3 0 25 24 48 53 24 28 35 46 24 38
-11 -7 -2 4 20 24 22 21 33 34 25 29 -9 -5 -4 2 10 16 14 14 19 21 10 16 -8
-5 3 8 25 29 22 20 33 33 25 29 -9 -5 -4 2 10 16 14 14 21 23 15 20 -6 -3 1 6
15 19 14 13 18 20 10 15 -17 -9 -1 13 76 98 60 66 129 169 172 253 34 69 85
206 78 212 -2 3 -20 -19 -39 -49 -197 -306 -653 -331 -1542 -86 -727 200
-1130 289 -1505 333 -270 31 -460 39 -625 28z m2765 -1466 c0 -2 -19 -21 -42
-42 l-43 -40 40 43 c36 39 45 47 45 39z m-100 -90 c0 -2 -12 -14 -27 -28 l-28
-24 24 28 c23 25 31 32 31 24z m-4685 -6087 c10 -11 16 -20 13 -20 -3 0 -13 9
-23 20 -10 11 -16 20 -13 20 3 0 13 -9 23 -20z m60 -70 c10 -11 16 -20 13 -20
-3 0 -13 9 -23 20 -10 11 -16 20 -13 20 3 0 13 -9 23 -20z"/>
</g>
</svg>
