<?xml version="1.0" standalone="no"?>
<!DOCTYPE svg PUBLIC "-//W3C//DTD SVG 20010904//EN"
 "http://www.w3.org/TR/2001/REC-SVG-20010904/DTD/svg10.dtd">
<svg version="1.0" xmlns="http://www.w3.org/2000/svg"
 width="1013.000000pt" height="1280.000000pt" viewBox="0 0 1013.000000 1280.000000"
 preserveAspectRatio="xMidYMid meet">
<metadata>
Created by potrace 1.15, written by Peter Selinger 2001-2017
</metadata>
<g transform="translate(0.000000,1280.000000) scale(0.100000,-0.100000)"
fill="#ffffff" stroke="none">
<path d="M8405 11094 c-203 -77 -552 -166 -776 -199 -442 -63 -809 -42 -1136
66 -51 17 -97 28 -103 24 -28 -18 -188 -277 -503 -815 -107 -184 -481 -570
-791 -818 -204 -163 -665 -478 -1056 -721 -256 -160 -529 -342 -623 -418 -268
-216 -320 -507 -150 -848 77 -154 183 -310 332 -489 112 -134 432 -479 438
-472 3 3 -24 52 -60 108 -105 168 -151 267 -194 418 -57 203 -35 454 60 676
34 77 133 254 143 254 3 0 2 -4 -1 -10 -3 -5 -4 -10 -2 -10 7 0 39 51 41 66 1
7 6 17 11 21 4 5 4 1 0 -7 -8 -13 -7 -13 9 -1 9 8 15 20 12 28 -3 8 -2 12 3 9
4 -3 32 25 62 61 101 125 303 317 619 588 324 279 401 341 458 369 39 20 115
29 109 12 -3 -6 -51 -126 -107 -266 -288 -718 -461 -1232 -630 -1863 -230
-860 -372 -1711 -442 -2647 -14 -185 -18 -1130 -5 -1332 l7 -128 -23 0 c-13 0
-170 22 -349 50 -522 80 -663 98 -843 111 -188 13 -415 6 -553 -16 -167 -27
-351 -91 -480 -167 -89 -52 -238 -207 -300 -312 -28 -49 -52 -96 -52 -103 0
-8 29 15 65 51 41 41 88 76 128 95 61 29 192 59 204 47 4 -3 -2 -6 -13 -6 -17
-1 -18 -1 -2 -11 9 -5 84 -16 167 -24 299 -29 518 -89 976 -267 571 -223 896
-326 1250 -397 441 -89 800 -79 1130 30 191 63 457 214 615 348 88 74 211 202
204 212 -3 5 0 8 8 7 7 -2 12 3 10 10 -1 8 2 11 7 8 5 -3 21 11 37 31 15 20
22 33 15 28 -8 -4 6 17 30 46 128 157 348 499 321 499 -4 0 -48 -26 -98 -57
-194 -123 -451 -228 -669 -272 -200 -41 -277 -46 -685 -46 -405 0 -626 14
-636 40 -6 15 50 494 81 697 144 930 527 2220 960 3233 309 724 650 1385 1053
2044 220 360 516 811 532 811 6 0 9 3 8 8 -3 15 15 42 25 35 6 -3 7 -1 3 6 -5
7 6 24 26 43 18 17 26 28 18 23 -13 -8 -13 -6 -1 11 8 10 26 30 40 43 14 13
19 20 11 16 -8 -4 -4 3 10 16 14 13 21 22 15 19 -6 -3 1 6 15 19 14 13 18 20
10 16 -8 -4 -4 3 10 16 14 13 21 22 15 19 -6 -3 1 6 15 20 14 14 19 21 10 16
-8 -6 1 6 20 25 46 44 196 248 192 261 -1 5 2 7 7 3 9 -5 37 33 33 45 -1 3 3
5 8 5 14 0 30 27 23 39 -3 5 -1 6 5 2 10 -6 23 10 34 39 1 6 6 9 10 8 6 -2 30
32 32 47 1 3 4 4 8 3 8 -3 25 25 27 42 1 6 5 10 11 10 14 0 41 41 32 50 -4 5
-2 5 5 1 12 -7 40 31 35 47 -1 5 2 6 7 3 12 -8 53 49 43 59 -4 5 -2 5 5 1 14
-8 45 33 36 47 -3 6 -1 7 4 4 13 -8 44 25 47 50 2 10 8 18 15 18 15 0 42 35
36 46 -3 4 10 19 27 35 18 15 31 29 29 31 -1 3 73 93 165 201 93 108 171 200
172 204 6 14 -19 7 -113 -28z"/>
<path d="M8139 10663 c-13 -16 -12 -17 4 -4 9 7 17 15 17 17 0 8 -8 3 -21 -13z"/>
</g>
</svg>
